<svg width="30" height="30" viewBox="0 0 30 30" fill="none" xmlns="http://www.w3.org/2000/svg">
    <g clip-path="url(#clip0_4_850)">
        <path d="M24.0375 19.075L20.8625 18.7125C20.1 18.625 19.35 18.8875 18.8125 19.425L16.5125 21.725C12.975 19.925 10.075 17.0375 8.27499 13.4875L10.5875 11.175C11.125 10.6375 11.3875 9.88751 11.3 9.12501L10.9375 5.97501C10.7875 4.71251 9.72499 3.76251 8.44999 3.76251H6.28749C4.87499 3.76251 3.69999 4.93751 3.78749 6.35001C4.44999 17.025 12.9875 25.55 23.65 26.2125C25.0625 26.3 26.2375 25.125 26.2375 23.7125V21.55C26.25 20.2875 25.3 19.225 24.0375 19.075Z" fill="#08AE2D"/>
    </g>
    <defs>
        <clipPath id="clip0_4_850">
            <rect width="30" height="30" fill="white"/>
        </clipPath>
    </defs>
</svg>
