<svg width="16" height="16" viewBox="0 0 16 16" fill="none" xmlns="http://www.w3.org/2000/svg">
    <g clip-path="url(#clip0_4_522)">
        <path d="M13.3333 1.33337H2.66665C1.93331 1.33337 1.33998 1.93337 1.33998 2.66671L1.33331 14.6667L3.99998 12H13.3333C14.0666 12 14.6666 11.4 14.6666 10.6667V2.66671C14.6666 1.93337 14.0666 1.33337 13.3333 1.33337ZM11.3333 9.33337H4.66665C4.29998 9.33337 3.99998 9.03337 3.99998 8.66671C3.99998 8.30004 4.29998 8.00004 4.66665 8.00004H11.3333C11.7 8.00004 12 8.30004 12 8.66671C12 9.03337 11.7 9.33337 11.3333 9.33337ZM11.3333 7.33337H4.66665C4.29998 7.33337 3.99998 7.03337 3.99998 6.66671C3.99998 6.30004 4.29998 6.00004 4.66665 6.00004H11.3333C11.7 6.00004 12 6.30004 12 6.66671C12 7.03337 11.7 7.33337 11.3333 7.33337ZM11.3333 5.33337H4.66665C4.29998 5.33337 3.99998 5.03337 3.99998 4.66671C3.99998 4.30004 4.29998 4.00004 4.66665 4.00004H11.3333C11.7 4.00004 12 4.30004 12 4.66671C12 5.03337 11.7 5.33337 11.3333 5.33337Z" fill="white"/>
    </g>
    <defs>
        <clipPath id="clip0_4_522">
            <rect width="16" height="16" fill="white"/>
        </clipPath>
    </defs>
</svg>
